<?xml version="1.0" encoding="UTF-8"?>
<svg width="256px" height="256px" viewBox="0 0 256 256" version="1.1" xmlns="http://www.w3.org/2000/svg" xmlns:xlink="http://www.w3.org/1999/xlink">
    <!-- Generator: Sketch 49.3 (51167) - http://www.bohemiancoding.com/sketch -->
    <title>logo</title>
    <desc>Created with Sketch.</desc>
    <defs></defs>
    <g id="logo" stroke="none" stroke-width="1" fill="none" fill-rule="evenodd">
        <g id="Group">
            <circle id="Oval" fill="#BE1313" cx="128" cy="128" r="128"></circle>
            <path d="M93.4077124,198.230088 C79.0118122,198.230088 72.4682212,192.632229 72.4682212,174.850792 C72.4682212,163.161144 74.1041189,157.069356 74.1041189,146.696851 C74.1041189,140.934349 70.6687336,134.84256 60.0353982,134.513274 L60.0353982,120.353982 C70.6687336,120.024696 74.1041189,113.932908 74.1041189,108.170405 C74.1041189,97.7979008 72.4682212,91.7061124 72.4682212,80.0164643 C72.4682212,62.2350278 79.0118122,56.6371681 93.4077124,56.6371681 L103.713868,56.6371681 L103.713868,69.4793167 L100.605663,69.4793167 C93.8984817,69.4793167 91.9354044,71.9489607 91.9354044,81.0043219 C91.9354044,89.8950401 92.5897635,97.7979008 92.5897635,107.84112 C92.5897635,120.353982 88.6636089,125.128627 80.4841201,127.104342 L80.4841201,127.762914 C88.6636089,129.738629 92.5897635,134.513274 92.5897635,147.026137 C92.5897635,157.069356 91.9354044,164.972217 91.9354044,173.862935 C91.9354044,182.918296 93.8984817,185.38794 100.605663,185.38794 L103.713868,185.38794 L103.713868,198.230088 L93.4077124,198.230088 Z M151.153388,198.230088 L151.153388,185.38794 L154.261594,185.38794 C161.132365,185.38794 162.931852,182.918296 162.931852,173.862935 C162.931852,164.972217 162.277493,157.069356 162.277493,147.026137 C162.277493,134.513274 166.203648,129.738629 174.383136,127.762914 L174.383136,127.104342 C166.203648,125.128627 162.277493,120.353982 162.277493,107.84112 C162.277493,97.7979008 162.931852,89.8950401 162.931852,81.0043219 C162.931852,71.9489607 161.132365,69.4793167 154.261594,69.4793167 L151.153388,69.4793167 L151.153388,56.6371681 L161.459544,56.6371681 C175.855444,56.6371681 182.399035,62.2350278 182.399035,80.0164643 C182.399035,91.7061124 180.763138,97.7979008 180.763138,108.170405 C180.763138,113.932908 184.198523,120.024696 194.831858,120.353982 L194.831858,134.513274 C184.198523,134.84256 180.763138,140.934349 180.763138,146.696851 C180.763138,157.069356 182.399035,163.161144 182.399035,174.850792 C182.399035,192.632229 175.855444,198.230088 161.459544,198.230088 L151.153388,198.230088 Z" id="{-}" fill="#FFFFFF"></path>
        </g>
    </g>
</svg>