<svg width="68" height="68" viewBox="0 0 68 68" fill="none" xmlns="http://www.w3.org/2000/svg">
<circle cx="34" cy="34" r="34" fill="white"/>
<path d="M25.7289 54.8946C23.5929 54.8946 22.0232 54.3924 21.0199 53.3882C20.0166 52.4164 19.515 50.6185 19.515 47.9945C19.515 47.1198 19.5311 46.3424 19.5635 45.6621C19.6282 44.9818 19.693 44.3339 19.7577 43.7184C19.8224 43.0705 19.871 42.4388 19.9033 41.8233C19.9681 41.1754 20.0004 40.4627 20.0004 39.6853C20.0004 39.2641 19.9195 38.843 19.7577 38.4219C19.6282 38.0008 19.4017 37.6282 19.078 37.3043C18.7544 36.9479 18.3175 36.6726 17.7673 36.4782C17.2495 36.2514 16.6022 36.1219 15.8254 36.0895V31.9106C16.6022 31.8782 17.2495 31.7648 17.7673 31.5704C18.3175 31.3437 18.7544 31.0683 19.078 30.7444C19.4017 30.388 19.6282 29.9993 19.7577 29.5781C19.9195 29.157 20.0004 28.7359 20.0004 28.3148C20.0004 27.5373 19.9681 26.8408 19.9033 26.2253C19.871 25.5774 19.8224 24.9457 19.7577 24.3302C19.693 23.6823 19.6282 23.0182 19.5635 22.3379C19.5311 21.6577 19.515 20.8802 19.515 20.0055C19.515 17.3816 20.0166 15.5837 21.0199 14.6118C22.0232 13.6076 23.5929 13.1055 25.7289 13.1055H28.7873V16.8956H27.8649C26.8616 16.8956 26.182 17.1386 25.826 17.6245C25.47 18.078 25.292 18.9689 25.292 20.2971C25.292 21.6253 25.3243 22.9048 25.3891 24.1358C25.4538 25.3668 25.4862 26.7274 25.4862 28.2176C25.4862 30.0641 25.1949 31.4084 24.6123 32.2507C24.0298 33.0606 23.1236 33.6113 21.8937 33.9028V34.0972C23.1236 34.3887 24.0298 34.9557 24.6123 35.7979C25.1949 36.6078 25.4862 37.936 25.4862 39.7825C25.4862 41.2726 25.4538 42.6332 25.3891 43.8642C25.3243 45.0952 25.292 46.3748 25.292 47.7029C25.292 49.0311 25.47 49.922 25.826 50.3755C26.182 50.8614 26.8616 51.1044 27.8649 51.1044H28.7873V54.8946H25.7289Z" fill="#BE1313"/>
<path d="M39.2127 54.8946V51.1044H40.135C41.1383 51.1044 41.818 50.8614 42.174 50.3755C42.53 49.922 42.708 49.0311 42.708 47.7029C42.708 46.3748 42.6756 45.0952 42.6109 43.8642C42.5462 42.6332 42.5138 41.2726 42.5138 39.7825C42.5138 37.936 42.8051 36.6078 43.3876 35.7979C43.9702 34.9557 44.8764 34.3887 46.1062 34.0972V33.9028C44.8764 33.6113 43.9702 33.0606 43.3876 32.2507C42.8051 31.4084 42.5138 30.0641 42.5138 28.2176C42.5138 26.7274 42.5462 25.3668 42.6109 24.1358C42.6756 22.9048 42.708 21.6253 42.708 20.2971C42.708 18.9689 42.53 18.078 42.174 17.6245C41.818 17.1386 41.1383 16.8956 40.135 16.8956H39.2127V13.1055H42.2711C44.4071 13.1055 45.9768 13.6076 46.9801 14.6118C47.9834 15.5837 48.485 17.3816 48.485 20.0055C48.485 20.8802 48.4526 21.6577 48.3879 22.3379C48.3555 23.0182 48.307 23.6823 48.2423 24.3302C48.1775 24.9457 48.1128 25.5774 48.0481 26.2253C48.0157 26.8408 47.9995 27.5373 47.9995 28.3148C47.9995 28.7359 48.0643 29.157 48.1937 29.5781C48.3556 29.9993 48.5983 30.388 48.9219 30.7444C49.2456 31.0683 49.6663 31.3437 50.1841 31.5704C50.7343 31.7648 51.3978 31.8782 52.1745 31.9106V36.0895C51.3978 36.1219 50.7343 36.2514 50.1841 36.4782C49.6663 36.6726 49.2456 36.9479 48.9219 37.3043C48.5983 37.6282 48.3556 38.0008 48.1937 38.4219C48.0643 38.843 47.9995 39.2641 47.9995 39.6853C47.9995 40.4627 48.0157 41.1754 48.0481 41.8233C48.1128 42.4388 48.1775 43.0705 48.2423 43.7184C48.307 44.3339 48.3555 44.9818 48.3879 45.6621C48.4526 46.3424 48.485 47.1198 48.485 47.9945C48.485 50.6185 47.9834 52.4164 46.9801 53.3882C45.9768 54.3924 44.4071 54.8946 42.2711 54.8946H39.2127Z" fill="#BE1313"/>
</svg>
